<?xml version="1.0" standalone="no"?>
<!DOCTYPE svg PUBLIC "-//W3C//DTD SVG 20010904//EN"
 "http://www.w3.org/TR/2001/REC-SVG-20010904/DTD/svg10.dtd">
<svg version="1.0" xmlns="http://www.w3.org/2000/svg"
 width="512.000000pt" height="512.000000pt" viewBox="0 0 512.000000 512.000000"
 preserveAspectRatio="xMidYMid meet">

<g transform="translate(0.000000,512.000000) scale(0.100000,-0.100000)"
fill="#000000" stroke="none">
<path d="M2504 5101 c-68 -41 -64 3 -64 -718 0 -359 -3 -653 -6 -653 -4 0
-102 77 -219 170 -117 94 -229 177 -249 185 -57 24 -123 -1 -152 -56 -19 -37
-18 -99 2 -127 14 -20 613 -506 684 -555 29 -20 85 -22 121 -3 30 16 668 525
688 549 22 27 26 99 6 136 -21 41 -89 74 -134 65 -19 -4 -115 -74 -255 -185
-123 -99 -227 -179 -230 -179 -3 0 -6 291 -6 648 0 624 -1 648 -20 679 -36 60
-108 79 -166 44z"/>
<path d="M653 3826 c-183 -45 -344 -210 -382 -394 -16 -75 -16 -2949 0 -3024
39 -189 208 -358 397 -397 38 -8 637 -11 2075 -11 1905 0 2024 1 2056 18 19 9
43 33 53 52 17 33 18 97 18 1463 0 1572 4 1477 -62 1517 -30 18 -50 20 -240
20 l-207 0 -3 338 c-3 314 -4 339 -23 369 -36 60 -52 63 -367 63 -263 0 -285
-1 -315 -20 -80 -49 -84 -163 -6 -216 25 -17 52 -19 241 -22 l212 -4 0 -254 0
-254 -1667 0 c-918 0 -1685 3 -1706 6 -61 11 -138 63 -171 117 -57 92 -46 220
25 301 72 82 65 80 489 86 349 5 377 6 407 25 82 49 82 166 0 215 -30 19 -52
20 -402 19 -259 0 -385 -4 -422 -13z m-33 -982 l65 -23 1963 -1 1962 0 0 -385
0 -385 -455 0 c-503 0 -507 0 -545 -62 -19 -32 -20 -49 -20 -451 0 -455 0
-454 57 -493 26 -18 56 -19 496 -22 l467 -3 0 -379 0 -380 -1941 0 c-1495 0
-1951 3 -1983 12 -55 16 -138 99 -154 154 -9 31 -12 330 -12 1249 0 1146 1
1207 18 1199 9 -4 46 -18 82 -30z m3990 -1309 l0 -255 -385 0 -385 0 0 255 0
255 385 0 385 0 0 -255z"/>
</g>
</svg>
