<?xml version="1.0" standalone="no"?>
<!DOCTYPE svg PUBLIC "-//W3C//DTD SVG 20010904//EN"
 "http://www.w3.org/TR/2001/REC-SVG-20010904/DTD/svg10.dtd">
<svg version="1.0" xmlns="http://www.w3.org/2000/svg"
 width="512.000000pt" height="512.000000pt" viewBox="0 0 512.000000 512.000000"
 preserveAspectRatio="xMidYMid meet">

<g transform="translate(0.000000,512.000000) scale(0.100000,-0.100000)"
fill="#000000" stroke="none">
<path d="M2520 5113 c-24 -9 -689 -543 -705 -566 -25 -35 -19 -110 10 -146 31
-36 84 -55 126 -46 19 4 120 78 255 186 123 98 226 179 229 179 3 0 5 -293 5
-651 0 -592 2 -654 17 -679 40 -69 138 -79 197 -21 l31 31 3 660 c1 363 5 660
7 660 3 0 106 -81 230 -179 156 -125 234 -182 258 -186 98 -19 177 88 135 181
-12 26 -614 517 -690 564 -32 19 -77 25 -108 13z"/>
<path d="M653 3826 c-183 -45 -344 -210 -382 -394 -16 -75 -16 -2949 0 -3024
39 -189 208 -358 397 -397 38 -8 637 -11 2075 -11 1905 0 2024 1 2056 18 19 9
43 33 53 52 17 33 18 97 18 1463 0 1572 4 1477 -62 1517 -30 18 -50 20 -240
20 l-207 0 -3 338 c-3 314 -4 339 -23 369 -39 65 -26 64 -635 61 l-552 -3 -34
-37 c-28 -31 -34 -46 -34 -81 0 -56 33 -108 80 -124 25 -8 164 -12 488 -12
l452 -1 0 -255 0 -255 -1667 0 c-918 0 -1685 3 -1706 6 -61 11 -138 63 -171
117 -57 92 -46 220 25 301 75 85 32 80 749 86 603 5 636 6 663 24 78 53 74
167 -6 216 -31 19 -54 20 -657 19 -463 0 -638 -4 -677 -13z m-33 -982 l65 -23
1963 -1 1962 0 0 -385 0 -385 -455 0 c-503 0 -507 0 -545 -62 -19 -32 -20 -49
-20 -451 0 -455 0 -454 57 -493 26 -18 56 -19 496 -22 l467 -3 0 -379 0 -380
-1941 0 c-1495 0 -1951 3 -1983 12 -55 16 -138 99 -154 154 -9 31 -12 330 -12
1249 0 1146 1 1207 18 1199 9 -4 46 -18 82 -30z m3990 -1309 l0 -255 -385 0
-385 0 0 255 0 255 385 0 385 0 0 -255z"/>
</g>
</svg>
