<svg width="55" height="55" viewBox="0 0 78 77" fill="none" xmlns="http://www.w3.org/2000/svg">
<ellipse cx="39" cy="38.5" rx="39" ry="38.5" fill="#F3C011"/>
<path d="M26.0146 40.0195L23.3486 42.8906V50H18.2217V25.1172H23.3486V36.3965L25.6045 33.3032L31.9448 25.1172H38.251L29.4155 36.1743L38.5073 50H32.4062L26.0146 40.0195ZM59.4253 41.7114C59.2316 44.3888 58.2404 46.4966 56.4517 48.0347C54.6743 49.5728 52.3273 50.3418 49.4106 50.3418C46.2205 50.3418 43.7083 49.2708 41.874 47.1289C40.0511 44.9756 39.1396 42.0247 39.1396 38.2764V36.7554C39.1396 34.3628 39.5612 32.255 40.4043 30.4321C41.2474 28.6092 42.4494 27.2135 44.0103 26.2451C45.5825 25.2653 47.4054 24.7754 49.479 24.7754C52.3501 24.7754 54.6629 25.5444 56.4175 27.0825C58.172 28.6206 59.186 30.7796 59.4595 33.5596H54.3325C54.2072 31.9531 53.7572 30.791 52.9824 30.0732C52.2191 29.3441 51.0513 28.9795 49.479 28.9795C47.77 28.9795 46.4883 29.5947 45.6338 30.8252C44.7907 32.0443 44.3577 33.9412 44.335 36.5161V38.396C44.335 41.0848 44.7394 43.0501 45.5483 44.292C46.3687 45.5339 47.6561 46.1548 49.4106 46.1548C50.9943 46.1548 52.1735 45.7959 52.9482 45.0781C53.7344 44.349 54.1844 43.2267 54.2983 41.7114H59.4253Z" fill="white"/>
<rect x="47" y="21" width="5" height="7" fill="white"/>
<rect x="47" y="47" width="5" height="7" fill="white"/>
</svg>
